<svg xmlns="http://www.w3.org/2000/svg" viewBox="0 0 512 512">
  <rect width="512" height="512" rx="96" fill="#8b5cf6"/>
  <path d="M132 284h248l-24-86c-7-25-30-42-56-42h-88c-26 0-49 17-56 42l-24 86Z" fill="#fef3c7"/>
  <path d="M104 276h304v84c0 18-14 32-32 32h-16c-18 0-32-14-32-32H184c0 18-14 32-32 32h-16c-18 0-32-14-32-32v-84Z" fill="#111827"/>
  <circle cx="164" cy="322" r="28" fill="#fef3c7"/>
  <circle cx="348" cy="322" r="28" fill="#fef3c7"/>
  <path d="M236 120h40v56h-40zM208 148h96v32h-96z" fill="#111827"/>
</svg>
